<svg xmlns="http://www.w3.org/2000/svg" viewBox="0 0 640 512"><path fill="currentColor" d="M576 96c0-35.3-28.7-64-64-64c-17.7 0-33.7 7.2-45.3 18.8c-6.2 6.2-14.9 9.2-23.2 9.6c-17.3 .9-37.8 9.5-55.3 22.8C370 97.2 354.3 112 342.3 128H297.7c-12-16-27.7-30.8-46-37.7c-17.5-13.3-38-21.9-55.3-22.8c-8.4-.4-17-3.5-23.2-9.6C161.7 39.2 145.7 32 128 32C92.7 32 64 60.7 64 96c0 24.8 14.1 46.2 34.6 57.2C104.9 156.2 107 165 107 176s-2.1 19.8-8.4 22.8C78.1 209.8 64 231.2 64 256s14.1 46.2 34.6 57.2c6.3 3 8.4 11.8 8.4 22.8s-2.1 19.8-8.4 22.8C78.1 369.8 64 391.2 64 416c0 35.3 28.7 64 64 64c17.7 0 33.7-7.2 45.3-18.8c6.2-6.2 14.9-9.2 23.2-9.6c17.3-.9 37.8-9.5 55.3-22.8c18.3-6.9 34-21.7 46-37.7h44.7c12 16 27.7 30.8 46 37.7c17.5 13.3 38 21.9 55.3 22.8c8.4 .4 17 3.5 23.2 9.6C510.3 472.8 526.3 480 544 480c35.3 0 64-28.7 64-64c0-24.8-14.1-46.2-34.6-57.2c-6.3-3-8.4-11.8-8.4-22.8s2.1-19.8 8.4-22.8C593.9 302.2 608 280.8 608 256s-14.1-46.2-34.6-57.2c-6.3-3-8.4-11.8-8.4-22.8s2.1-19.8 8.4-22.8C593.9 142.2 608 120.8 608 96z"/></svg>