<svg xmlns="http://www.w3.org/2000/svg" viewBox="0 0 512 512"><path fill="currentColor" d="M228.3 469.1L47.6 300.4c-4.2-3.9-8.2-8.1-11.9-12.4h87c22.6 0 43-13.6 51.7-34.5l10.5-25.2 49.3 109.5c3.8 8.5 12.1 14 21.4 14.1s17.8-5.4 21.7-13.9L320 253.2l13.8 27.6c5.1 10.2 16.1 16.8 27.4 16.8H476.3c-3.7 4.3-7.7 8.5-11.9 12.4L283.7 469.1c-7.5 7-17.4 10.9-27.7 10.9s-20.2-3.9-27.7-10.9zM64 192c-35.3 0-64 28.7-64 64s28.7 64 64 64c11.7 0 22.6-3.1 32-8.6V256c0-23.7 12.9-44.4 32-55.4c-9.4-5.4-20.3-8.6-32-8.6zm480 64c0-35.3-28.7-64-64-64c-11.7 0-22.6 3.1-32 8.6c19.1 11 32 31.7 32 55.4v55.4c9.4 5.4 20.3 8.6 32 8.6c35.3 0 64-28.7 64-64z"/></svg>