<svg xmlns="http://www.w3.org/2000/svg" viewBox="0 0 448 512"><path fill="currentColor" d="M336 48a48 48 0 1 0 -96 0 48 48 0 1 0 96 0zM141.7 175.5c9.9-9.9 23.4-15.5 37.5-15.5c.1 0 .3 0 .4 0l43.7 .1c17.2 0 33.8 6.7 46.1 18.6l49.6 48.2c11.1 10.8 28.6 12.4 41.5 3.7l54.2-36.2c13.1-8.7 30.2-5.2 38.9 7.9s5.2 30.2-7.9 38.9l-54.2 36.2c-38.5 25.7-89.8 21.8-124-8.1l-21.1-20.5-18.1 63.6 47.4 47.4c9.2 9.2 14.3 21.7 14.3 34.7V456c0 13.3-10.7 24-24 24s-24-10.7-24-24V394.1l-52.4-52.4c-13.2-13.2-20.1-31-20.1-49.8c0-11.1 2.1-22 6.2-32.2l16.4-40.7-32.6 24.3c-9.2 6.9-20.9 10-32.7 8.7L91.8 293.4c-13.2-1.5-22.7-14.2-19.3-27c6.7-25.3 23.6-46.5 46.1-59.7l34.9-22.3 7.3-29.1-31.7 15.8c-11.5 5.7-25.1 3.4-33.8-5.6s-8.8-23.8-2.4-33.8l23.7-37.4c7.5-11.8 21.5-18.2 36.2-16.3c13.1 1.7 24.3 9.1 30.8 19.8l18 30.3 32.3-24.1zM135.7 385.9c1.3 11.1-6.7 21.3-17.8 22.6s-21.3-6.7-22.6-17.8L82.6 288H56c-13.3 0-24-10.7-24-24s10.7-24 24-24h38.9c10.2 0 19.2 6.5 22.5 16.1l18.3 49.8v80z"/></svg>