<svg xmlns="http://www.w3.org/2000/svg" viewBox="0 0 576 512"><path fill="currentColor" d="M183.1 235.3c33.7 20.7 62.5 48.3 85.7 79.7c4.8 6.5 12.5 10.1 20.8 10.1s15.9-3.6 20.8-10.1c23.2-31.4 51.9-59 85.7-79.7c-3-59.6-28.6-116.2-68.3-159.2C312.1 49.4 286.2 32 256 32s-56.1 17.4-81.7 44.1c-39.7 42.9-65.3 99.5-68.3 159.2zm-22.2 42.1c-26.1 17.4-47.9 38.5-64.5 62.4C75.7 374.4 64 414 64 456c0 13.3 10.7 24 24 24s24-10.7 24-24c0-34.8 9.7-68.8 28.2-98.6c10.7-17.2 26.7-35.7 44.9-51.9c-4.2-13.4-6.7-27.6-7.8-42.1zm218.4 0c-1.1 14.5-3.6 28.7-7.8 42.1c18.2 16.2 34.2 34.7 44.9 51.9c18.4 29.8 28.2 63.8 28.2 98.6c0 13.3 10.7 24 24 24s24-10.7 24-24c0-42-11.7-81.6-32.4-116.2c-16.5-23.9-38.4-45-64.5-62.4z"/></svg>